<svg width="42" height="42" viewBox="0 0 42 42" fill="none" xmlns="http://www.w3.org/2000/svg">
  <rect width="42" height="42" rx="21" fill="none"></rect>
  <path fill-rule="evenodd" clip-rule="evenodd" d="M 12.416 11.217 L 11.218 11.217 L 11.218 12.415 L 11.218 17.648 L 13.615 17.648 L 13.615 13.614 L 17.646 13.614 L 17.646 11.217 L 12.416 11.217 Z M 12.416 28.002 L 11.218 28.002 L 11.218 26.804 L 11.218 21.571 L 13.615 21.571 L 13.615 25.604 L 17.646 25.604 L 17.646 28.002 L 12.416 28.002 Z M 27.997 11.217 L 26.798 11.217 L 21.568 11.217 L 21.568 13.614 L 25.599 13.614 L 25.599 17.648 L 27.997 17.648 L 27.997 12.415 L 27.997 11.217 Z M 26.798 28.002 L 27.997 28.002 L 27.997 26.804 L 27.997 21.571 L 25.599 21.571 L 25.599 25.604 L 21.568 25.604 L 21.568 28.002 L 26.798 28.002 Z" fill="#0D54A1" style=""></path>
</svg>