<svg width="42" height="42" viewBox="0 0 42 42" fill="none" xmlns="http://www.w3.org/2000/svg">
  <path fill-rule="evenodd" clip-rule="evenodd" d="M 17.266 18.502 L 18.501 18.502 L 18.501 17.267 L 18.501 12.189 L 16.033 12.189 L 16.033 16.033 L 12.189 16.033 L 12.189 18.502 L 17.266 18.502 Z M 17.266 20.688 L 18.501 20.688 L 18.501 21.922 L 18.501 27 L 16.033 27 L 16.033 23.156 L 12.189 23.156 L 12.189 20.688 L 17.266 20.688 Z M 20.689 18.502 L 21.922 18.502 L 27 18.502 L 27 16.033 L 23.156 16.033 L 23.156 12.189 L 20.689 12.189 L 20.689 17.267 L 20.689 18.502 Z M 21.922 20.688 L 20.689 20.688 L 20.689 21.922 L 20.689 27 L 23.156 27 L 23.156 23.156 L 27 23.156 L 27 20.688 L 21.922 20.688 Z" fill="#0D54A1" style=""></path>
</svg>