<svg width="280" height="569" viewBox="0 0 280 569" fill="none" xmlns="http://www.w3.org/2000/svg">
<g clip-path="url(#clip0_2212_4402)">
<rect x="100.339" y="83.5276" width="179.482" height="362.461" rx="15.5943" transform="rotate(15 100.339 83.5276)" stroke="white" stroke-width="9.02656"/>
<mask id="path-2-inside-1_2212_4402" fill="white">
<path d="M150.761 101.193C132.798 96.3796 203.201 115.244 203.201 115.244L203.144 115.458C201.235 122.58 193.915 126.807 186.792 124.899L169.647 120.305C162.579 118.411 157.829 103.087 150.761 101.193Z"/>
</mask>
<path d="M203.201 115.244L216.311 118.757L219.824 105.647L206.714 102.134L203.201 115.244ZM154.273 88.0825C153.151 87.7817 152.373 87.5734 151.902 87.4471C151.667 87.384 151.508 87.3414 151.42 87.3181C151.377 87.3064 151.351 87.2994 151.342 87.2971C151.341 87.2968 151.34 87.2964 151.339 87.2962C151.337 87.2958 134.719 96.8845 144.292 113.511C144.302 113.513 144.312 113.516 144.314 113.517C144.315 113.517 144.316 113.517 144.317 113.518C144.322 113.519 144.331 113.521 144.343 113.525C144.55 113.58 145.826 113.922 147.863 114.468C151.938 115.56 159.054 117.466 166.732 119.524C174.41 121.581 182.649 123.788 188.968 125.482C192.128 126.328 194.808 127.047 196.698 127.553C197.643 127.806 198.391 128.007 198.902 128.144C199.158 128.212 199.354 128.265 199.487 128.3C199.553 128.318 199.604 128.331 199.637 128.341C199.654 128.345 199.667 128.348 199.675 128.351C199.68 128.352 199.683 128.353 199.685 128.353C199.686 128.354 199.687 128.354 199.687 128.354C199.688 128.354 199.688 128.354 203.201 115.244C206.714 102.134 206.714 102.134 206.713 102.134C206.713 102.134 206.712 102.133 206.711 102.133C206.709 102.132 206.705 102.132 206.701 102.13C206.693 102.128 206.68 102.125 206.663 102.12C206.629 102.111 206.579 102.098 206.513 102.08C206.38 102.044 206.183 101.992 205.928 101.923C205.416 101.786 204.669 101.586 203.724 101.333C201.834 100.826 199.154 100.108 195.994 99.2616C189.674 97.5682 181.435 95.3606 173.758 93.3033C166.08 91.2461 158.963 89.3393 154.889 88.2475C152.852 87.7017 151.576 87.3596 151.37 87.3045C151.357 87.301 151.348 87.2988 151.344 87.2977C151.329 87.2937 151.348 87.2987 151.363 87.3026C160.935 103.929 144.317 113.518 144.317 113.517C144.317 113.518 144.317 113.518 144.318 113.518C144.326 113.52 144.351 113.527 144.395 113.538C144.482 113.562 144.641 113.604 144.877 113.667C145.348 113.794 146.125 114.002 147.248 114.303L154.273 88.0825ZM190.091 111.731L190.034 111.945L216.254 118.971L216.311 118.757L190.091 111.731ZM190.305 111.789L173.16 107.195L166.134 133.415L183.279 138.009L190.305 111.789ZM173.16 107.195C175.248 107.754 175.809 108.838 174.824 107.737C173.968 106.78 172.997 105.403 171.394 103.068C170.042 101.098 168.059 98.1708 165.816 95.6629C163.701 93.2988 159.896 89.5889 154.273 88.0825L147.248 114.303C145.16 113.743 144.599 112.659 145.583 113.76C146.44 114.717 147.411 116.095 149.014 118.429C150.365 120.399 152.349 123.327 154.592 125.834C156.707 128.199 160.512 131.908 166.134 133.415L173.16 107.195ZM190.034 111.945C190.033 111.948 190.036 111.936 190.046 111.917C190.055 111.899 190.067 111.88 190.079 111.864C190.104 111.833 190.124 111.818 190.137 111.811C190.149 111.804 190.173 111.793 190.212 111.787C190.232 111.785 190.254 111.784 190.275 111.785C190.296 111.786 190.308 111.789 190.305 111.789L183.279 138.009C197.642 141.857 212.405 133.334 216.254 118.971L190.034 111.945Z" fill="white" mask="url(#path-2-inside-1_2212_4402)"/>
<mask id="path-4-inside-2_2212_4402" fill="white">
<path d="M220.176 119.792C238.139 124.606 167.735 105.741 167.735 105.741L167.678 105.955C165.769 113.077 169.996 120.398 177.118 122.307L194.264 126.901C201.332 128.795 213.107 117.898 220.176 119.792Z"/>
</mask>
<path d="M167.735 105.741L154.625 102.228L158.138 89.1179L171.248 92.6308L167.735 105.741ZM223.689 106.682C224.811 106.983 225.589 107.191 226.06 107.318C226.295 107.381 226.454 107.423 226.542 107.447C226.585 107.458 226.611 107.465 226.62 107.468C226.621 107.468 226.622 107.468 226.623 107.469C226.625 107.469 236.222 124.082 219.619 133.695C219.609 133.692 219.598 133.689 219.597 133.689C219.596 133.688 219.595 133.688 219.594 133.688C219.589 133.687 219.58 133.684 219.567 133.681C219.361 133.625 218.084 133.283 216.047 132.738C211.973 131.646 204.856 129.739 197.179 127.682C189.501 125.624 181.262 123.417 174.942 121.723C171.782 120.877 169.102 120.159 167.212 119.652C166.267 119.399 165.52 119.199 165.009 119.062C164.753 118.993 164.556 118.941 164.424 118.905C164.357 118.887 164.307 118.874 164.273 118.865C164.256 118.86 164.244 118.857 164.235 118.855C164.231 118.853 164.228 118.853 164.225 118.852C164.224 118.852 164.224 118.851 164.223 118.851C164.223 118.851 164.222 118.851 167.735 105.741C171.248 92.6308 171.248 92.6309 171.249 92.631C171.249 92.6312 171.25 92.6314 171.251 92.6317C171.253 92.6322 171.257 92.6331 171.261 92.6342C171.269 92.6365 171.282 92.6399 171.299 92.6445C171.333 92.6535 171.383 92.667 171.449 92.6848C171.582 92.7203 171.779 92.773 172.034 92.8415C172.546 92.9785 173.293 93.1788 174.238 93.432C176.128 93.9384 178.808 94.6565 181.968 95.5032C188.288 97.1965 196.527 99.4042 204.204 101.461C211.882 103.519 218.998 105.426 223.073 106.517C225.11 107.063 226.386 107.405 226.592 107.46C226.605 107.464 226.614 107.466 226.618 107.467C226.633 107.471 226.614 107.466 226.599 107.462C209.997 117.075 219.593 133.688 219.594 133.688C219.594 133.688 219.593 133.688 219.592 133.687C219.585 133.685 219.559 133.679 219.516 133.667C219.428 133.644 219.27 133.601 219.034 133.538C218.563 133.412 217.785 133.203 216.663 132.902L223.689 106.682ZM180.845 109.254L180.788 109.468L154.568 102.442L154.625 102.228L180.845 109.254ZM180.631 109.196L197.776 113.79L190.751 140.011L173.605 135.417L180.631 109.196ZM197.776 113.79C195.688 113.231 194.66 113.889 196.064 113.428C197.284 113.027 198.814 112.32 201.369 111.1C203.525 110.07 206.706 108.526 209.902 107.476C212.916 106.486 218.066 105.176 223.689 106.682L216.663 132.902C218.751 133.462 219.779 132.804 218.376 133.265C217.155 133.666 215.626 134.373 213.07 135.593C210.915 136.623 207.733 138.167 204.537 139.217C201.523 140.207 196.373 141.517 190.751 140.011L197.776 113.79ZM180.788 109.468C180.787 109.47 180.79 109.459 180.792 109.438C180.793 109.417 180.792 109.395 180.789 109.375C180.784 109.335 180.773 109.312 180.766 109.3C180.759 109.287 180.744 109.266 180.713 109.242C180.696 109.229 180.678 109.218 180.659 109.208C180.64 109.199 180.629 109.196 180.631 109.196L173.605 135.417C159.243 131.568 150.719 116.805 154.568 102.442L180.788 109.468Z" fill="white" mask="url(#path-4-inside-2_2212_4402)"/>
</g>
<path d="M118.256 25.1843L91.094 1.78302C91.094 1.78302 90.6647 7.22231 91.0258 13.728C76.253 12.4729 40.5852 20.6791 54.3435 68.9977C49.6708 41.8181 79.3965 28.1287 90.864 32.8384L90.8052 44.3041L118.256 25.1843Z" fill="white"/>
<path d="M165.431 543.409L192.403 567.029C192.403 567.029 192.876 561.593 192.568 555.085C207.33 556.459 243.063 548.542 229.696 500.114C234.149 527.33 204.313 540.779 192.884 535.976L193.036 524.511L165.431 543.409Z" fill="white"/>
<defs>
<clipPath id="clip0_2212_4402">
<rect width="188.508" height="371.487" fill="white" transform="translate(97.1479 78) rotate(15)"/>
</clipPath>
</defs>
</svg>
