<svg width="44" height="44" viewBox="0 0 44 44" fill="none" xmlns="http://www.w3.org/2000/svg">
<path opacity="0.9" fill-rule="evenodd" clip-rule="evenodd" d="M21.9998 9.16278C30.6186 9.16278 37.4844 16.0956 37.4844 24.7986C37.4844 32.1062 32.4754 38.3376 25.6434 40V36.3148C30.4831 34.7196 33.8324 30.0235 33.8324 24.6511C33.8324 18.0133 28.4274 12.5555 21.8537 12.5555V17.8657L14.9879 10.9329L15.28 10.7854L21.9998 4V9.16278ZM18.3565 36.3334C13.4728 34.7794 10.0211 30.1763 10.0211 24.7986C10.0211 21.4059 11.3358 18.4558 13.5271 16.2432L11.0437 13.7355C8.26812 16.5382 6.51514 20.3734 6.51514 24.7986C6.51514 32.1063 11.5243 38.3378 18.3565 40V36.3334Z" fill="white"/>
</svg>
