<svg
width="42"
height="42"
viewBox="0 0 42 42"
fill="none"
xmlns="http://www.w3.org/2000/svg"
>
<rect width="42" height="42" rx="21" fill="black" />
<path
    opacity="0.9"
    fill-rule="evenodd"
    clip-rule="evenodd"
    d="M21.525 13.2105C26.0499 13.2105 29.6544 16.8502 29.6544 21.4193C29.6544 25.2558 27.0247 28.5273 23.4379 29.4V27.4653C25.9788 26.6278 27.7371 24.1624 27.7371 21.3418C27.7371 17.857 24.8995 14.9916 21.4483 14.9916L21.4483 17.7795L17.8438 14.1398L17.9971 14.0623L21.525 10.5V13.2105ZM19.6123 27.475C17.0483 26.6592 15.2362 24.2425 15.2362 21.4193C15.2362 19.6381 15.9264 18.0893 17.0768 16.9277L15.773 15.6111C14.3159 17.0825 13.3956 19.096 13.3956 21.4193C13.3956 25.2558 16.0254 28.5274 19.6123 29.4V27.475Z"
    fill="white"
/>
</svg>